<svg xmlns="http://www.w3.org/2000/svg" viewBox="0 0 100 100">
  <!-- ANVIL -->
  <rect x="14" y="78" width="72" height="10" rx="3" fill="#9a7528"/>
  <rect x="26" y="62" width="48" height="16" rx="2" fill="#c49535"/>
  <rect x="16" y="50" width="68" height="14" rx="3" fill="#e8b84a"/>
  <polygon points="16,50 2,56 2,58 16,64" fill="#d4a04a"/>
  <rect x="18" y="51" width="64" height="3" rx="1" fill="#f0d060" opacity="0.4"/>

  <!-- HAMMER (handle horizontal to the right, head at left, slight tilt) -->
  <g transform="rotate(5, 86, 24)">
    <!-- Handle -->
    <rect x="52" y="20" width="34" height="8" rx="3" fill="#5C3D0E"/>
    <rect x="53" y="21.5" width="32" height="5" rx="2" fill="#8B6914" opacity="0.5"/>
    <!-- Head -->
    <rect x="38" y="18" width="18" height="30" rx="3" fill="#808094"/>
    <!-- Flat face (bottom) -->
    <rect x="38" y="45" width="18" height="3" rx="1.5" fill="#A0A0B8"/>
    <!-- Top highlight -->
    <rect x="39" y="19" width="16" height="2.5" rx="1" fill="#A0A0B8" opacity="0.35"/>
    <!-- Junction highlight -->
    <rect x="53" y="19" width="2.5" height="9" rx="1" fill="#A0A0B8" opacity="0.15"/>
  </g>

  <!-- IMPACT GLOW -->
  <circle cx="47" cy="49" r="6" fill="#ff6b35" opacity="0.15"/>
  <circle cx="47" cy="49" r="3" fill="#ffcc44" opacity="0.35"/>

  <!-- SPARKS — left -->
  <line x1="40" y1="49" x2="14" y2="38" stroke="#ff6b35" stroke-width="2.5" stroke-linecap="round"/>
  <line x1="38" y1="49" x2="6" y2="28" stroke="#ff8c42" stroke-width="2" stroke-linecap="round"/>
  <line x1="42" y1="49" x2="20" y2="32" stroke="#ffaa30" stroke-width="1.5" stroke-linecap="round"/>

  <!-- SPARKS — right -->
  <line x1="52" y1="49" x2="78" y2="38" stroke="#ff6b35" stroke-width="2.5" stroke-linecap="round"/>
  <line x1="54" y1="49" x2="86" y2="28" stroke="#ff8c42" stroke-width="2" stroke-linecap="round"/>
  <line x1="50" y1="49" x2="70" y2="32" stroke="#ffaa30" stroke-width="1.5" stroke-linecap="round"/>

  <!-- Dots -->
  <circle cx="13" cy="37" r="2.5" fill="#ff6b35"/>
  <circle cx="5" cy="27" r="2" fill="#ff8c42"/>
  <circle cx="19" cy="31" r="1.5" fill="#ffaa30"/>
  <circle cx="79" cy="37" r="2.5" fill="#ff6b35"/>
  <circle cx="87" cy="27" r="2" fill="#ff8c42"/>
  <circle cx="71" cy="31" r="1.5" fill="#ffaa30"/>

  <!-- Tiny particles -->
  <circle cx="10" cy="44" r="1" fill="#ff8c42" opacity="0.8"/>
  <circle cx="82" cy="44" r="1" fill="#ff8c42" opacity="0.8"/>
  <circle cx="16" cy="24" r="1" fill="#ffaa30" opacity="0.6"/>
  <circle cx="76" cy="24" r="1" fill="#ffaa30" opacity="0.6"/>
</svg>
